<svg height="512" viewBox="0 0 64 64" width="512" xmlns="http://www.w3.org/2000/svg"><g id="_03-Certificate" data-name="03-Certificate"><path d="m61 55h-6v-2h6a1 1 0 0 0 1-1v-40a1 1 0 0 0 -1-1h-58a1 1 0 0 0 -1 1v40a1 1 0 0 0 1 1h38v2h-38a3 3 0 0 1 -3-3v-40a3 3 0 0 1 3-3h58a3 3 0 0 1 3 3v40a3 3 0 0 1 -3 3z"/><path d="m37 51h-32a1 1 0 0 1 -1-1v-36a1 1 0 0 1 1-1h54a1 1 0 0 1 1 1v18h-2v-17h-52v34h31z"/><path d="m50.522 54a2.38 2.38 0 0 1 -2.141-1.339.424.424 0 0 0 -.762 0 2.428 2.428 0 0 1 -4.6-1.135.429.429 0 0 0 -.234-.4.408.408 0 0 0 -.441.031 2.433 2.433 0 0 1 -3.544-3.14.434.434 0 0 0 -.026-.465.409.409 0 0 0 -.407-.181 2.439 2.439 0 0 1 -1.681-4.439.431.431 0 0 0 .189-.42.421.421 0 0 0 -.281-.359 2.441 2.441 0 0 1 .572-4.715.415.415 0 0 0 .355-.276.434.434 0 0 0 -.085-.456 2.437 2.437 0 0 1 2.694-3.906.4.4 0 0 0 .436-.076.432.432 0 0 0 .134-.444 2.431 2.431 0 0 1 4.193-2.2.406.406 0 0 0 .423.138.416.416 0 0 0 .317-.326 2.427 2.427 0 0 1 4.733 0 .416.416 0 0 0 .317.326.405.405 0 0 0 .423-.138 2.431 2.431 0 0 1 4.193 2.2.432.432 0 0 0 .134.444.4.4 0 0 0 .436.076 2.437 2.437 0 0 1 2.692 3.907.434.434 0 0 0 -.085.456.415.415 0 0 0 .355.276 2.441 2.441 0 0 1 .572 4.715.419.419 0 0 0 -.281.359.431.431 0 0 0 .189.42 2.439 2.439 0 0 1 -1.682 4.439.413.413 0 0 0 -.406.181.434.434 0 0 0 -.026.465 2.433 2.433 0 0 1 -3.546 3.146.4.4 0 0 0 -.441-.032.429.429 0 0 0 -.234.4 2.4 2.4 0 0 1 -1.853 2.4 2.5 2.5 0 0 1 -.601.068zm-2.522-3.576a2.418 2.418 0 0 1 2.167 1.336.4.4 0 0 0 .481.226.408.408 0 0 0 .329-.432 2.429 2.429 0 0 1 3.838-2.019.391.391 0 0 0 .526-.027.414.414 0 0 0 .1-.543 2.437 2.437 0 0 1 2.459-3.576.4.4 0 0 0 .456-.275.412.412 0 0 0 -.162-.525 2.442 2.442 0 0 1 .522-4.314.44.44 0 0 0 -.1-.848 2.44 2.44 0 0 1 -1.536-4.063.415.415 0 0 0 .034-.551.4.4 0 0 0 -.506-.154 2.433 2.433 0 0 1 -3.244-2.881.411.411 0 0 0 -.22-.5.392.392 0 0 0 -.518.1 2.426 2.426 0 0 1 -4.208-1.04.427.427 0 0 0 -.835 0 2.426 2.426 0 0 1 -4.207 1.04.392.392 0 0 0 -.518-.1.411.411 0 0 0 -.22.5 2.433 2.433 0 0 1 -3.244 2.881.4.4 0 0 0 -.506.154.415.415 0 0 0 .035.552 2.44 2.44 0 0 1 -1.537 4.062.44.44 0 0 0 -.1.848 2.442 2.442 0 0 1 .522 4.314.412.412 0 0 0 -.162.525.4.4 0 0 0 .455.275 2.437 2.437 0 0 1 2.463 3.575.415.415 0 0 0 .1.544.39.39 0 0 0 .527.027 2.428 2.428 0 0 1 3.837 2.018.408.408 0 0 0 .329.433.4.4 0 0 0 .481-.226 2.418 2.418 0 0 1 2.162-1.336z"/><path d="m48 49a8 8 0 1 1 8-8 8.009 8.009 0 0 1 -8 8zm0-14a6 6 0 1 0 6 6 6.006 6.006 0 0 0 -6-6z"/><path d="m53 61a.994.994 0 0 1 -.515-.143l-4.485-2.691-4.485 2.691a1 1 0 0 1 -1.509-.967l1-9 1.988.22-.777 6.99 3.268-1.961a1 1 0 0 1 1.03 0l3.268 1.961-.777-6.994 1.988-.22 1 9a1 1 0 0 1 -.994 1.114z"/><path d="m9 18h2v2h-2z"/><path d="m13 18h8v2h-8z"/><path d="m15 24h34v2h-34z"/><path d="m17 28h22v2h-22z"/><path d="m15 32h20v2h-20z"/><path d="m21 36h14v2h-14z"/><path d="m9.707 46.707-1.414-1.414 3-3a1 1 0 0 1 1.414 0l1.293 1.293 2.293-2.293 1.414 1.414-3 3a1 1 0 0 1 -1.414 0l-1.293-1.293z"/></g></svg>