<svg id="Layer_1" height="512" viewBox="0 0 512 512" width="512" xmlns="http://www.w3.org/2000/svg" data-name="Layer 1"><path d="m41.757 375.509a6 6 0 0 0 -6 6v4.7a6 6 0 0 0 12 0v-4.7a6 6 0 0 0 -6-6z"/><path d="m41.757 404.946a6 6 0 0 0 -6 6v50.261a6 6 0 0 0 12 0v-50.261a6 6 0 0 0 -6-6z"/><path d="m159.254 262.371a6 6 0 0 0 1.854 8.28c10.673 6.767 19.378 10.151 27.992 10.151 8.634 0 17.176-3.4 27.51-10.207a6 6 0 0 0 -6.6-10.023c-16.714 11.006-25.051 10.993-42.477-.056a6 6 0 0 0 -8.279 1.855z"/><path d="m156.085 197.036a6 6 0 0 0 12 0c0-10.386-7.712-18.835-17.19-18.835s-17.195 8.449-17.195 18.835a6 6 0 0 0 12 0c0-3.705 2.377-6.835 5.191-6.835s5.194 3.13 5.194 6.835z"/><path d="m215.547 203.036a6 6 0 0 0 6-6c0-3.705 2.377-6.835 5.189-6.835s5.191 3.13 5.191 6.835a6 6 0 0 0 12 0c0-10.386-7.712-18.835-17.191-18.835s-17.189 8.449-17.189 18.835a6 6 0 0 0 6 6z"/><path d="m415.271 336.835a27.734 27.734 0 1 0 -27.521 31.635 28.149 28.149 0 0 0 3.949-.28 27.737 27.737 0 0 0 23.572-31.355zm-14.883 13.349a15.739 15.739 0 1 1 -14.788-25.04 16 16 0 0 1 2.241-.159 15.743 15.743 0 0 1 15.55 13.534 15.639 15.639 0 0 1 -3.003 11.665z"/><path d="m342.285 384.479a14.006 14.006 0 0 0 11.2-5.587 14 14 0 1 0 -11.2 5.587zm-1.59-15.2a1.991 1.991 0 0 1 1.318-.778 1.907 1.907 0 0 1 .281-.02 2 2 0 1 1 -1.6.8z"/><path d="m380.8 447.055a15 15 0 1 0 16.952 12.745 15.017 15.017 0 0 0 -16.952-12.745zm4.5 16.653a3 3 0 1 1 -2.82-4.771 2.907 2.907 0 0 1 .423-.031 3 3 0 0 1 2.4 4.8z"/><path d="m375.742 409.776a12.9 12.9 0 0 0 7.784 2.612 13.3 13.3 0 0 0 1.852-.131 13 13 0 1 0 -9.636-2.481zm7.013-10.991a.98.98 0 0 1 .659-.389 1.079 1.079 0 0 1 .147-.01 1 1 0 0 1 .983.86 1 1 0 0 1 -1.591.939 1 1 0 0 1 -.2-1.4z"/><path d="m482.6 386.945a13 13 0 1 0 -7.84 23.392 13.294 13.294 0 0 0 1.851-.13 13 13 0 0 0 5.989-23.262zm-7.013 10.991a1 1 0 1 1 -.94-1.59 1.093 1.093 0 0 1 .148-.01 1 1 0 0 1 .982.859.979.979 0 0 1 -.19.741z"/><path d="m367.874 424.288-21.418-23.341a15.719 15.719 0 0 0 -22.187-.954l-1.718 1.577a15.7 15.7 0 0 0 -.953 22.187l21.417 23.343a15.6 15.6 0 0 0 10.9 5.071q.346.016.691.016a15.594 15.594 0 0 0 10.6-4.134l1.718-1.576a15.721 15.721 0 0 0 .95-22.189zm-9.067 13.346-1.718 1.576a3.7 3.7 0 0 1 -5.233-.225l-21.417-23.341a3.7 3.7 0 0 1 .225-5.233l1.717-1.576a3.708 3.708 0 0 1 5.233.225l21.418 23.34a3.707 3.707 0 0 1 -.225 5.234z"/><path d="m464.948 418.455a15.7 15.7 0 0 0 -22.045-2.682l-24.941 19.527a15.725 15.725 0 0 0 -2.682 22.047l1.438 1.835a15.719 15.719 0 0 0 22.046 2.681l24.94-19.531a15.7 15.7 0 0 0 2.682-22.046zm-7.248 11.965a3.676 3.676 0 0 1 -1.393 2.468l-24.941 19.53a3.707 3.707 0 0 1 -5.2-.632l-1.436-1.835a3.708 3.708 0 0 1 .631-5.2l24.939-19.53a3.678 3.678 0 0 1 2.276-.788 3.853 3.853 0 0 1 .454.027 3.681 3.681 0 0 1 2.469 1.394l1.437 1.835a3.678 3.678 0 0 1 .764 2.731z"/><path d="m459.476 307.978a106.443 106.443 0 0 0 -154.971 29.8h-50.752a17.539 17.539 0 0 1 -17.388-17.586v-14.83a90.4 90.4 0 0 0 42.761-72.918 27.507 27.507 0 0 0 .09-53.668v-44.651a90.367 90.367 0 0 0 -39.478-74.651 50.854 50.854 0 0 0 -101.414-.35 91.343 91.343 0 0 0 -13.457 11.111 89.8 89.8 0 0 0 -26.446 63.971v44.567a27.505 27.505 0 0 0 .093 53.669 90.05 90.05 0 0 0 45.857 74.739v12.949a17.451 17.451 0 0 1 -17.432 17.432h-63.023a53.983 53.983 0 0 0 -53.922 53.922v102.206a6 6 0 0 0 6 6h345.643a6 6 0 0 0 5.591-3.835 105.551 105.551 0 0 0 28.153 3.831 107.117 107.117 0 0 0 15.016-1.062 106.542 106.542 0 0 0 49.079-190.646zm-180.26-116.654a15.526 15.526 0 0 1 0 28.546zm-180.795 28.547a15.524 15.524 0 0 1 0-28.548zm90.6-195.561a39.019 39.019 0 0 1 37.154 27.5 90.5 90.5 0 0 0 -74.229-.245 39.073 39.073 0 0 1 37.071-27.255zm-78.6 109.89a78.4 78.4 0 1 1 156.8-.075v23.346a15.8 15.8 0 0 1 -13.651-10.865l-.926-2.837a58.623 58.623 0 0 0 -55.865-40.544h-15.079a58.978 58.978 0 0 0 -56.545 42.78 15.9 15.9 0 0 1 -14.738 11.512zm0 94.338v-59.021a27.94 27.94 0 0 0 26.285-20.248 46.937 46.937 0 0 1 45-34.044h15.07a46.65 46.65 0 0 1 44.456 32.266l.927 2.837a27.756 27.756 0 0 0 25.059 19.154v59.056a78.438 78.438 0 0 1 -78.359 78.346 77.35 77.35 0 0 1 -35.892-8.691 78.154 78.154 0 0 1 -42.546-69.655zm120.957 110.778a98.476 98.476 0 0 1 -82.449.347 29.3 29.3 0 0 0 7.442-19.533v-7.284a90.769 90.769 0 0 0 32.5 6.038 89.837 89.837 0 0 0 35.5-7.27v8.575a29.532 29.532 0 0 0 7.007 19.127zm-154.407 148.374v-37.49a6 6 0 0 0 -12 0v37.49h-42.977v-96.206a41.969 41.969 0 0 1 41.922-41.922h38.7l-3.416 47.327a6 6 0 0 0 4.808 6.314l18.085 3.617-10.385 9.737a6 6 0 0 0 -.116 8.643l63.177 62.49zm47.491-66.64 14.345-13.45a6 6 0 0 0 -2.927-10.26l-24.33-4.866 3.092-42.912h12.3a29.385 29.385 0 0 0 7.366-.934l41.338 123.046zm23.784-68.6a110.675 110.675 0 0 0 82.987.033l-41.819 122.502zm97.027-3.946a29.2 29.2 0 0 0 8.464 1.275h11.188l3.089 42.7-24.329 4.866a6 6 0 0 0 -2.927 10.261l14.32 13.425-51.89 50.754zm67.387 139.186v-27.578a107.347 107.347 0 0 0 33.822 27.578zm158.36-37.742a94.575 94.575 0 0 1 -164.931-25.88 5.979 5.979 0 1 0 -11.3 3.9 105.678 105.678 0 0 0 8.407 18.382 5.988 5.988 0 0 0 -2.533 4.891v36.449h-96.58l63.865-62.466a6 6 0 0 0 -.092-8.667l-10.385-9.737 18.086-3.617a6 6 0 0 0 4.807-6.316l-3.407-47.112h21.234a106.109 106.109 0 0 0 -7.729 25.24 6 6 0 1 0 11.842 1.942 94.7 94.7 0 0 1 79.886-77.426 96.012 96.012 0 0 1 13.461-.953 94.555 94.555 0 0 1 75.369 151.37z"/></svg>