<svg id="Layer_1" enable-background="new 0 0 512 512" height="512" viewBox="0 0 512 512" width="512" xmlns="http://www.w3.org/2000/svg"><path d="m413.678 255.74c0-30.895-9.081-60.885-26.26-86.729l-.288.192c.85-4.28 1.315-8.697 1.315-13.223 0-16.689-6.121-31.955-16.201-43.759l25.502-25.954c8.39-8.7 9.446-21.714 3.439-31.416l11.38-11.38c1.302-1.302 2.031-3.067 2.027-4.907 0-1.84-.734-3.603-2.036-4.903l-31.768-31.641c-1.302-1.295-3.059-2.02-4.892-2.02-.014 0-.027 0-.041 0-1.847.011-3.612.757-4.905 2.076l-10.961 11.166-.944-.928c-4.86-4.777-11.18-7.367-18.179-7.297-6.856.07-13.256 2.786-18.031 7.646l-141.985 144.608c-4.833 4.916-7.441 11.425-7.351 18.326.095 6.833 2.842 13.2 7.698 17.88l3.739 3.674-7.563 7.787c-2.459 2.322-3.842 5.468-3.892 8.855-.045 3.417 1.32 6.768 3.775 9.216l12.013 11.882c2.527 2.385 5.72 3.579 8.905 3.579 3.27 0 6.531-1.259 9.049-3.779l7.785-7.979 4.499 4.423c4.968 4.88 11.445 7.315 17.918 7.315 6.639 0 13.274-2.558 18.283-7.657l22.116-22.451c11.688 9.594 26.627 15.365 42.895 15.365 7.223 0 14.172-1.162 20.704-3.265 4.665 10.917 7.146 23.034 7.146 35.297 0 50.611-41.115 91.785-91.654 91.785-12.066 0-24.086-2.523-35.312-7.193h6.939c3.829 0 6.928-3.099 6.928-6.928s-3.099-6.928-6.928-6.928h-124.207c-3.829 0-6.928 3.099-6.928 6.928s3.099 6.928 6.928 6.928h21.026c16.107 27.364 42.049 48.802 72.738 61.001-1.544 5.916-2.372 11.97-2.372 18.099 0 10.946 2.516 21.29 6.887 30.598h-36.697c-17.085 0-30.985 13.9-30.985 30.985v24.058c0 3.829 3.099 6.928 6.928 6.928h252.337c3.829 0 6.928-3.099 6.928-6.928v-24.058c0-17.085-13.9-30.985-30.985-30.985h-36.698c4.373-9.308 6.888-19.652 6.888-30.598 0-9.491-1.878-18.882-5.416-27.53 47.9-27.255 78.764-78.441 78.764-136.161zm-37.728-238.975 21.905 21.814-5.993 5.994-21.99-21.616zm-177.822 207.399-10.261-10.15 6.948-7.149 10.308 10.132zm47.701-3.09c-4.554 4.624-12.004 4.703-16.612.176l-38.354-37.701c-2.216-2.142-3.464-5.031-3.504-8.139-.041-3.176 1.158-6.169 3.378-8.428l141.99-144.607c2.18-2.225 5.121-3.466 8.279-3.5h.126c3.108 0 6.018 1.178 8.202 3.324l38.354 37.701c4.635 4.475 4.671 11.986.131 16.7l-25.613 26.068c-11.476-8.917-25.851-14.284-41.488-14.284-37.345 0-67.723 30.323-67.723 67.596 0 16.095 5.665 30.879 15.076 42.513zm21.022-65.094c0-29.632 24.166-53.737 53.867-53.737 29.706 0 53.872 24.105 53.872 53.737 0 29.704-24.166 53.867-53.872 53.867-29.701 0-53.867-24.163-53.867-53.867zm103.289 307.905c9.446 0 17.13 7.684 17.13 17.13v17.13h-238.482v-17.13c0-9.446 7.684-17.13 17.13-17.13h45.208c13.245 16.918 33.798 27.85 56.901 27.85s43.657-10.933 56.903-27.85zm-43.665-44.454c0 32.228-26.22 58.448-58.448 58.448-32.224 0-58.444-26.22-58.444-58.448 0-4.591.602-9.13 1.679-13.583 7.713 2.311 15.636 4.1 23.738 5.235-.532 2.397-.832 4.879-.832 7.433 0 18.891 15.423 34.255 34.386 34.255 18.959 0 34.382-15.364 34.382-34.255 0-4.301-.829-8.403-2.277-12.201 7.566-2.178 14.861-4.892 21.858-8.084 2.58 6.686 3.958 13.898 3.958 21.2zm-78.452-.914c0-11.319 9.211-20.526 20.531-20.526s20.526 9.207 20.526 20.526c0 11.247-9.207 20.4-20.526 20.4s-20.531-9.153-20.531-20.4zm44.708-24.413c-6.216-6.156-14.757-9.969-24.177-9.969-11.198 0-21.13 5.401-27.412 13.709-40.9-4.517-77.719-25.99-99.373-57.513h51.892c18.433 13.551 40.768 21.049 63.254 21.049 58.178 0 105.509-47.39 105.509-105.64 0-14.185-2.892-28.226-8.333-40.898 11.79-6.711 21.339-16.855 27.357-29.068 12.047 21.383 18.375 45.361 18.375 69.966 0 65.718-43.881 122.139-107.092 138.364zm27.987-275.125c-20.472 0-37.129 16.598-37.129 37.001 0 20.474 16.657 37.131 37.129 37.131s37.129-16.657 37.129-37.131c0-20.402-16.657-37.001-37.129-37.001zm0 60.273c-12.833 0-23.274-10.439-23.274-23.272 0-12.761 10.441-23.141 23.274-23.141s23.274 10.38 23.274 23.141c0 12.833-10.441 23.272-23.274 23.272zm-52.164 250.769c-6.347 0-11.504-5.157-11.504-11.504 0-6.527 5.054-11.635 11.504-11.635 6.347 0 11.504 5.221 11.504 11.635 0 6.347-5.158 11.504-11.504 11.504z"/></svg>