<?xml version="1.0" encoding="UTF-8"?>
<svg xmlns="http://www.w3.org/2000/svg" xmlns:xlink="http://www.w3.org/1999/xlink" version="1.1" id="Capa_1" x="0px" y="0px" viewBox="0 0 512 512" style="enable-background:new 0 0 512 512;" xml:space="preserve" width="512" height="512">
<g>
	<path style="fill:none;stroke:#000000;stroke-width:30;stroke-linecap:round;stroke-linejoin:round;stroke-miterlimit:10;" d="&#10;&#9;&#9;M103.802,408.198c0,0,168.514,168.514,315.963,21.064S414.783,129.382,497,15C382.618,97.217,230.187-55.214,82.738,92.235&#10;&#9;&#9;S103.802,408.198,103.802,408.198z"/>
	
		<line style="fill:none;stroke:#000000;stroke-width:30;stroke-linecap:round;stroke-linejoin:round;stroke-miterlimit:10;" x1="497" y1="15" x2="15" y2="497"/>
	<path style="fill:none;stroke:#000000;stroke-width:30;stroke-linejoin:round;stroke-miterlimit:10;" d="M483.324,213.462&#10;&#9;&#9;c0,0-27.224,2.345-55.51-16.935c-32.268-21.993-68.275-44.066-114.478,2.136c46.202-46.202,24.129-82.209,2.136-114.477&#10;&#9;&#9;c-19.28-28.288-16.935-55.516-16.935-55.516"/>
	<path style="fill:none;stroke:#000000;stroke-width:30;stroke-linejoin:round;stroke-miterlimit:10;" d="M205.573,27.369&#10;&#9;&#9;c-1.29,145.216,111.493,167.566,48.096,230.962"/>
	<path style="fill:none;stroke:#000000;stroke-width:30;stroke-linejoin:round;stroke-miterlimit:10;" d="M485.53,307.326&#10;&#9;&#9;c-145.216,1.29-168.464-112.392-231.861-48.995"/>
	<path style="fill:none;stroke:#000000;stroke-width:30;stroke-linejoin:round;stroke-miterlimit:10;" d="M169.412,342.587&#10;&#9;&#9;c90.783-90.783-103.729-132.397-84.257-252.77"/>
	<path style="fill:none;stroke:#000000;stroke-width:30;stroke-linejoin:round;stroke-miterlimit:10;" d="M169.413,342.588&#10;&#9;&#9;c90.783-90.783,132.397,103.729,252.77,84.257"/>
</g>















</svg>
