<svg id="Layer_1" enable-background="new 0 0 512 512" height="512" viewBox="0 0 512 512" width="512" xmlns="http://www.w3.org/2000/svg"><g><path d="m472.646 22.38c-9.754-14.014-25.771-22.38-42.846-22.38-21.732 0-41.404 13.691-48.952 34.069l-47.384 127.931h-293.452c-3.49 0-6.67 1.77-8.511 4.74-1.83 2.97-2 6.609-.44 9.729l18.951 37.89v67.641c0 61.999 50.361 115.803 112.214 119.745 1.929.123 3.861.199 5.794.231v34.362l-45.148 27.087c-3.012 1.808-4.855 5.063-4.855 8.575v30c0 5.522 4.477 10 10.001 10h236.015c5.523 0 10.001-4.478 10.001-10v-30c0-3.513-1.843-6.768-4.855-8.575l-45.148-27.087s0-34.369 0-34.37c0 1.094 24.728-2.978 27.105-3.573 29.323-7.33 55.688-26.164 72.1-51.885 2.97-4.65 1.61-10.85-3.04-13.82-4.362-2.786-10.853-1.571-13.811 3.051-18.521 28.969-50.053 46.259-84.355 46.259 0 0-151.96 0-152.009 0-54.457 0-100.006-45.615-100.006-100v-70c0-1.59-.35-3.05-1.06-4.47l-12.762-25.53h379.664l-9.996 20h-325.846c-5.523 0-10.001 4.478-10.001 10s4.477 10 10.001 10h322.021v32.439c0 5.511 4.49 10 10.001 10 5.52 0 10.001-4.489 10.001-10.01v-40.07l18.951-37.89c1.56-3.12 1.39-6.76-.44-9.729-1.84-2.971-5.02-4.74-8.51-4.74h-7.24l33.955-91.672c5.929-16.011 3.646-33.935-6.108-47.948zm-118.614 469.62h-216.013v-14.338l42.773-25.662h130.468l42.773 25.662v14.338zm-50.003-90v30h-116.007v-30zm155.967-338.618-36.527 98.618h-68.677l44.811-120.984c4.657-12.571 16.792-21.016 30.197-21.016 10.69 0 20.323 5.031 26.429 13.805 6.107 8.773 7.48 19.553 3.767 29.577z"/><circle cx="430.673" cy="299.359" r="10"/></g></svg>