<?xml version="1.0" encoding="UTF-8"?>
<svg xmlns="http://www.w3.org/2000/svg" xmlns:xlink="http://www.w3.org/1999/xlink" version="1.1" id="Capa_1" x="0px" y="0px" viewBox="0 0 512 512" style="enable-background:new 0 0 512 512;" xml:space="preserve" width="512" height="512">
<g>
	
		<rect x="46.459" y="79.825" style="fill:none;stroke:#000000;stroke-width:30;stroke-miterlimit:10;" width="419.082" height="233.856"/>
	<polyline style="fill:none;stroke:#000000;stroke-width:30;stroke-miterlimit:10;" points="286,316.542 286,497 226,497 &#10;&#9;&#9;226,316.542 &#9;"/>
	<polyline style="fill:none;stroke:#000000;stroke-width:30;stroke-miterlimit:10;" points="226,79.825 226,15 286,15 286,79.825 &#9;&#10;&#9;&#9;"/>
	<g>
		<polyline style="fill:none;stroke:#000000;stroke-width:30;stroke-miterlimit:10;" points="171.95,266.541 171.95,141.771 &#10;&#9;&#9;&#9;172.269,141.771 225.297,251.465 228.369,251.465 228.369,125.826 &#9;&#9;"/>
		<path style="fill:none;stroke:#000000;stroke-width:30;stroke-miterlimit:10;" d="M312.664,254.773L312.664,254.773&#10;&#9;&#9;&#9;c-15.125,0-27.386-12.261-27.386-27.386v-60.302c0-15.125,12.261-27.386,27.386-27.386h0c15.125,0,27.386,12.261,27.386,27.386&#10;&#9;&#9;&#9;v60.302C340.05,242.512,327.789,254.773,312.664,254.773z"/>
	</g>
</g>















</svg>
