<svg clip-rule="evenodd" fill-rule="evenodd" height="512" stroke-linejoin="round" stroke-miterlimit="2" viewBox="0 0 48 48" width="512" xmlns="http://www.w3.org/2000/svg"><g transform="translate(-48 -48)"><g id="Icon"><g transform="matrix(.667 0 0 .667 16 25.333)"><path d="m67.5 59.8c0-.875-.348-1.715-.967-2.333-.618-.619-1.458-.967-2.333-.967h-2.4c-.875 0-1.715.348-2.333.967-.619.618-.967 1.458-.967 2.333v2.4c0 .875.348 1.715.967 2.333.618.619 1.458.967 2.333.967h2.4c.875 0 1.715-.348 2.333-.967.619-.618.967-1.458.967-2.333zm-3 0v2.4c0 .08-.032.156-.088.212s-.132.088-.212.088h-2.4c-.08 0-.156-.032-.212-.088s-.088-.132-.088-.212v-2.4c0-.08.032-.156.088-.212s.132-.088.212-.088h2.4c.08 0 .156.032.212.088s.088.132.088.212z"/></g><g transform="matrix(.667 0 0 .667 16 35.333)"><path d="m67.5 59.8c0-.875-.348-1.715-.967-2.333-.618-.619-1.458-.967-2.333-.967h-2.4c-.875 0-1.715.348-2.333.967-.619.618-.967 1.458-.967 2.333v2.4c0 .875.348 1.715.967 2.333.618.619 1.458.967 2.333.967h2.4c.875 0 1.715-.348 2.333-.967.619-.618.967-1.458.967-2.333zm-3 0v2.4c0 .08-.032.156-.088.212s-.132.088-.212.088h-2.4c-.08 0-.156-.032-.212-.088s-.088-.132-.088-.212v-2.4c0-.08.032-.156.088-.212s.132-.088.212-.088h2.4c.08 0 .156.032.212.088s.088.132.088.212z"/></g><g transform="matrix(.667 0 0 .667 16 45.333)"><path d="m67.5 59.8c0-.875-.348-1.715-.967-2.333-.618-.619-1.458-.967-2.333-.967h-2.4c-.875 0-1.715.348-2.333.967-.619.618-.967 1.458-.967 2.333v2.4c0 .875.348 1.715.967 2.333.618.619 1.458.967 2.333.967h2.4c.875 0 1.715-.348 2.333-.967.619-.618.967-1.458.967-2.333zm-3 0v2.4c0 .08-.032.156-.088.212s-.132.088-.212.088h-2.4c-.08 0-.156-.032-.212-.088s-.088-.132-.088-.212v-2.4c0-.08.032-.156.088-.212s.132-.088.212-.088h2.4c.08 0 .156.032.212.088s.088.132.088.212z"/></g><g transform="translate(-4 6)"><path d="m68 59h16c.552 0 1-.448 1-1s-.448-1-1-1h-16c-.552 0-1 .448-1 1s.448 1 1 1z"/></g><g transform="translate(-4 16)"><path d="m68 59h10c.552 0 1-.448 1-1s-.448-1-1-1h-10c-.552 0-1 .448-1 1s.448 1 1 1z"/></g><g transform="translate(-4 26)"><path d="m68 59h6c.552 0 1-.448 1-1s-.448-1-1-1h-6c-.552 0-1 .448-1 1s.448 1 1 1z"/></g><g transform="translate(-4 6)"><path d="m68 63h8c.552 0 1-.448 1-1s-.448-1-1-1h-8c-.552 0-1 .448-1 1s.448 1 1 1z"/></g><g transform="translate(-4 16)"><path d="m68 63h8c.552 0 1-.448 1-1s-.448-1-1-1h-8c-.552 0-1 .448-1 1s.448 1 1 1z"/></g><g transform="translate(-4 26)"><path d="m68 63h6c.552 0 1-.448 1-1s-.448-1-1-1h-6c-.552 0-1 .448-1 1s.448 1 1 1z"/></g><g transform="matrix(.707 -.707 .707 .707 -34.794 82.586)"><path d="m79 82v4c0 .552.448 1 1 1h8c.552 0 1-.448 1-1s-.448-1-1-1h-7v-3c0-.552-.448-1-1-1s-1 .448-1 1z"/></g><path d="m84 95c-.221 0-32 0-32 0-1.657 0-3-1.343-3-3v-40c0-1.657 1.343-3 3-3h23.172c.795 0 1.558.316 2.121.879l8.828 8.828c.563.563.879 1.326.879 2.121v12.587c4.615 1.307 8 5.554 8 10.585 0 6.071-4.929 11-11 11zm0-20c4.967 0 9 4.033 9 9s-4.033 9-9 9-9-4.033-9-9 4.033-9 9-9zm1-1.955v-12.045h-7c-.796 0-1.559-.316-2.121-.879-.563-.562-.879-1.325-.879-2.121v-7h-23c-.552 0-1 .448-1 1v40c0 .552.448 1 1 1h25.677c-2.828-1.991-4.677-5.281-4.677-9 0-6.071 4.929-11 11-11 .337 0 .67.015 1 .045zm-1.414-14.045-6.586-6.586v5.586c0 .265.105.52.293.707.187.188.442.293.707.293z"/></g></g></svg>